<svg height="512pt" viewBox="0 0 512 512" width="512pt" xmlns="http://www.w3.org/2000/svg"><path d="m158.421875 345.703125c0 45.488281 37.007813 82.496094 82.492187 82.496094h30.171876c45.484374 0 82.492187-37.007813 82.492187-82.496094v-68.703125h-195.15625zm30-38.703125h135.15625v38.703125c0 28.945313-23.546875 52.496094-52.492187 52.496094h-30.171876c-28.945312 0-52.492187-23.550781-52.492187-52.496094zm0 0"/><path d="m204 216.25h104v30h-104zm0 0"/><path d="m490.101562 398.199219c-4.46875 0-8.101562-3.632813-8.101562-8.097657v-101.5c0-21.007812-17.089844-38.101562-38.101562-38.101562h-21.398438v-48.71875l-47.015625-77v-124.78125h-94.648437v59.167969c-.003907 13.691406-11.144532 24.832031-24.835938 24.832031s-24.832031-11.140625-24.832031-24.832031v-59.167969h-94.648438v124.78125l-47.019531 77v48.71875h-21.398438c-21.007812 0-38.101562 17.089844-38.101562 38.101562v101.5c0 4.464844-3.632812 8.097657-8.101562 8.097657h-21.898438v30h21.898438c21.007812 0 38.101562-17.089844 38.101562-38.097657v-101.5c0-4.46875 3.632812-8.101562 8.101562-8.101562h21.398438v231.5h333v-231.5h21.398438c4.46875 0 8.101562 3.632812 8.101562 8.101562v101.5c0 21.007813 17.089844 38.097657 38.101562 38.097657h21.898438v-30zm-97.601562 83.800781h-273v-271.78125l47.015625-77v-103.21875h34.648437v29.167969c.003907 30.234375 24.601563 54.832031 54.835938 54.832031s54.832031-24.597656 54.832031-54.832031v-29.167969h34.648438v103.21875l47.019531 77zm0 0"/></svg>