<?xml version="1.0" encoding="utf-8"?>
<!-- Generator: Adobe Illustrator 25.2.1, SVG Export Plug-In . SVG Version: 6.00 Build 0)  -->
<svg version="1.1" id="Capa_1" xmlns="http://www.w3.org/2000/svg" xmlns:xlink="http://www.w3.org/1999/xlink" x="0px" y="0px"
	 viewBox="0 0 100 100" style="enable-background:new 0 0 100 100;" xml:space="preserve">
<style type="text/css">
	.st0{fill:#00A99D;}
	.st1{fill:#FFFFFF;}
</style>
<circle class="st0" cx="49.8" cy="49.9" r="48.9"/>
<path class="st1" d="M80.6,38.5c0-0.1,0-0.1,0-0.2v-7.5c0-0.1,0-0.1,0-0.2c0,0,0,0,0,0c0,0,0-0.1,0-0.1c0,0,0,0,0,0c0,0,0-0.1,0-0.1
	l-5.8-10v-1.8c0-1.3-1.1-2.4-2.4-2.4H53.9c-1.3,0-2.4,1.1-2.4,2.4v1.8l-5.8,10c0,0,0,0.1,0,0.1c0,0,0,0,0,0c0,0,0,0.1,0,0.1
	c0,0,0,0,0,0c0,0.1,0,0.1,0,0.2v0v7.7V52h-3.6v-7.4c0-2-0.8-3.8-2.1-5.2c-1.1-1.1-1.5-2-1.6-3.1h0c0.5,0,0.9-0.4,0.9-0.9v-3.3
	c0-1.1-0.9-2.1-2.1-2.1H31c-1.1,0-2.1,0.9-2.1,2.1v3.3c0,0.5,0.4,0.9,0.9,0.9h0.1c-0.1,1.1-0.6,2-1.6,3.1c-1.4,1.4-2.1,3.3-2.1,5.2
	V52h-3.3c-3.4,0-6.2,2.8-6.2,6.2v9h-0.1c-1.8,0-3.2,1.4-3.2,3.2v1.4c0,0.5,0.4,0.9,0.9,0.9h43.6v0h21.9c0.5,0,0.9-0.4,0.9-0.9v-7.5
	c0-0.1,0-0.1,0-0.2L80.6,38.5L80.6,38.5z M47.3,31.7H67v5.9H47.3L47.3,31.7z M73.8,22.4l4.4,7.6h-8.8L73.8,22.4z M68.8,39.4h10.1
	v23.8H68.8V39.4z M68.8,37.7v-5.9h10.1v5.9H68.8z M53.2,18.6c0-0.4,0.3-0.6,0.6-0.6h18.4c0.4,0,0.6,0.3,0.6,0.6v1.2H53.2L53.2,18.6z
	 M52.9,21.6h19.4L67.4,30H48L52.9,21.6z M47.3,39.4H67v23.8H55.9v-4.9c0.4,0.1,0.8,0.1,1.2,0.1c3.9,0,7.1-3.2,7.1-7.1
	s-3.2-7.1-7.1-7.1s-7.1,3.2-7.1,7.1c0,0.2,0,0.4,0,0.7c-0.1,0-0.2,0-0.3,0h-2.4L47.3,39.4L47.3,39.4z M49.8,53.7
	c2.4,0,4.4,2,4.4,4.4v9H43.1v-9c0-1.7-0.7-3.3-1.9-4.4L49.8,53.7z M51.8,51.3c0-3,2.4-5.4,5.4-5.4c3,0,5.4,2.4,5.4,5.4
	c0,3-2.4,5.4-5.4,5.4c-0.5,0-1-0.1-1.5-0.2c-0.5-1.9-2-3.5-3.8-4.1C51.8,52,51.8,51.7,51.8,51.3L51.8,51.3z M30.6,32.1
	c0-0.2,0.2-0.4,0.4-0.4h6.1c0.2,0,0.4,0.2,0.4,0.4v2.4h-6.8L30.6,32.1z M29.5,40.5c1-1.1,2-2.3,2.1-4.3h5c0.1,2,1.1,3.2,2.1,4.3
	c1.1,1.1,1.6,2.5,1.6,4V52H37h-9.1v-7.4C27.8,43.1,28.4,41.6,29.5,40.5L29.5,40.5z M18.3,58.2c0-2.4,2-4.4,4.4-4.4h3.8H37
	c2.4,0,4.4,2,4.4,4.4v9H18.3L18.3,58.2z M57,70.9H15.1v-0.6c0-0.8,0.7-1.5,1.5-1.5h39c0.8,0,1.5,0.7,1.5,1.5L57,70.9L57,70.9z
	 M55.9,67.2V65H67v6h-8.3v-0.6C58.7,68.7,57.5,67.4,55.9,67.2L55.9,67.2z M68.8,70.9v-6h10.1v6H68.8z"/>
</svg>
