<svg id="Layer_1" enable-background="new 0 0 389.01 389.01" height="512" viewBox="0 0 389.01 389.01" width="512" xmlns="http://www.w3.org/2000/svg"><path d="m389.01 160.218c0-.404-.061-.792-.151-1.168v-43.149c.001-.306-.035-.611-.091-.913-.012-.068-.025-.135-.04-.201-.064-.281-.145-.559-.257-.829-.011-.027-.027-.052-.039-.078-.074-.168-.151-.335-.245-.496l-33.433-57.785v-10.569c0-7.556-6.147-13.703-13.703-13.703h-106.528c-7.556 0-13.702 6.147-13.702 13.703v10.581l-33.426 57.773c-.089.155-.163.315-.235.477-.016.035-.036.068-.051.103-.11.265-.19.538-.253.814-.017.073-.03.146-.044.22-.053.294-.089.591-.09.889v.001 44.331 77.727h-20.542v-42.748c0-11.393-4.364-22.174-12.29-30.357-6.082-6.282-8.796-11.323-9.358-17.724h.025c2.762 0 5-2.239 5-5v-19.07c0-6.653-5.413-12.066-12.066-12.066h-35.486c-6.653 0-12.066 5.413-12.066 12.066v19.07c0 2.761 2.238 5 5 5h.49c-.561 6.401-3.275 11.442-9.359 17.723-7.926 8.184-12.29 18.965-12.29 30.358v42.748h-19.205c-19.688 0-35.704 16.017-35.704 35.704v52.096h-.349c-10.212-.001-18.522 8.309-18.522 18.522v8.312c0 2.761 2.238 5 5 5h252.406v.102h126.452c2.762 0 5-2.239 5-5v-43.382c.091-.376.151-.764.151-1.168v-147.914zm-192.286-39.33h113.926v34.331h-113.926zm153.031-53.962 25.435 43.962h-50.87zm-29.105 98.292h58.208v137.914h-58.208zm0-10v-34.331h58.208v34.331zm-89.829-110.188c0-2.042 1.661-3.703 3.702-3.703h106.528c2.042 0 3.703 1.661 3.703 3.703v6.923h-113.933zm-2.116 16.924h112.373l-28.312 48.934h-112.372zm-31.981 103.264h113.926v137.914h-64.151v-28.429c2.362.416 4.763.632 7.188.632 22.695 0 41.16-18.464 41.16-41.16s-18.465-41.16-41.16-41.16-41.16 18.464-41.16 41.16c0 1.281.081 2.555.198 3.824-.64-.034-1.283-.054-1.931-.054h-14.071v-72.727zm14.071 82.727c14.173 0 25.704 11.531 25.704 25.704v52.096h-64.138v-52.096c0-10.088-4.212-19.204-10.961-25.704zm11.732-13.77c0-17.182 13.979-31.16 31.16-31.16s31.16 13.979 31.16 31.16-13.979 31.16-31.16 31.16c-2.894 0-5.736-.415-8.483-1.191-3.072-11.106-11.38-20.059-22.095-24.008-.378-1.956-.582-3.95-.582-5.961zm-122.589-111.129c0-1.14.927-2.066 2.066-2.066h35.486c1.14 0 2.066.927 2.066 2.066v14.07h-39.618zm-6.685 48.75c5.927-6.121 11.437-13.357 12.194-24.68h29.066c.757 11.323 6.267 18.559 12.194 24.68 6.108 6.309 9.473 14.62 9.473 23.401v42.748h-19.522-52.879v-42.748c0-8.782 3.365-17.093 9.474-23.401zm-64.382 101.853c0-14.173 11.531-25.704 25.704-25.704h22.069 60.013c14.173 0 25.704 11.531 25.704 25.704v52.096h-133.49zm223.535 73.932h-242.406v-3.312c0-4.7 3.823-8.523 8.522-8.523h225.361c4.699 0 8.522 3.823 8.522 8.523v3.312zm-5.907-21.629v-12.82h64.151v34.55h-48.244v-3.414c0-9.323-6.931-17.039-15.907-18.316zm74.151 21.73v-34.55h58.208v34.55z"/></svg>