<?xml version="1.0" encoding="utf-8"?>
<!-- Generator: Adobe Illustrator 25.2.1, SVG Export Plug-In . SVG Version: 6.00 Build 0)  -->
<svg version="1.1" id="Capa_1" xmlns="http://www.w3.org/2000/svg" xmlns:xlink="http://www.w3.org/1999/xlink" x="0px" y="0px"
	 viewBox="0 0 667.41 156.83" style="enable-background:new 0 0 667.41 156.83;" xml:space="preserve">
<style type="text/css">
	.st0{fill:#FFFFFF;stroke:#FFFFFF;stroke-width:2;stroke-miterlimit:10;}
</style>
<path class="st0" d="M50.87,97.85c2.32,0,4.44-0.23,6.35-0.7c1.91-0.47,3.6-1.01,5.06-1.63c1.46-0.62,2.68-1.25,3.65-1.88
	c0.97-0.64,1.69-1.11,2.14-1.41l3.37,4.5c-0.38,0.3-1.13,0.84-2.28,1.63c-1.14,0.79-2.62,1.58-4.44,2.39
	c-1.82,0.81-3.93,1.52-6.35,2.14c-2.42,0.62-5.07,0.93-7.95,0.93c-3.9,0-7.51-0.63-10.85-1.88c-3.34-1.25-6.21-3.05-8.63-5.4
	s-4.31-5.18-5.68-8.52c-1.37-3.33-2.05-7.06-2.05-11.19c0-4.08,0.64-7.86,1.91-11.33c1.27-3.46,3.05-6.46,5.34-8.99
	c2.29-2.53,5-4.5,8.15-5.9s6.59-2.11,10.34-2.11c4.2,0,7.81,0.67,10.85,2s5.54,3.08,7.5,5.25c1.97,2.17,3.43,4.65,4.38,7.42
	c0.96,2.77,1.43,5.6,1.43,8.49c0,1.54-0.1,2.93-0.31,4.19c-0.21,1.26-0.4,2.15-0.59,2.67H30.3c0.04,2.96,0.58,5.63,1.63,8.01
	c1.05,2.38,2.47,4.41,4.27,6.1c1.8,1.69,3.94,2.98,6.44,3.88C45.13,97.4,47.87,97.85,50.87,97.85z M66.27,72.89
	c0.11-0.71,0.18-1.22,0.2-1.52c0.02-0.3,0.03-0.73,0.03-1.29c0-1.5-0.25-3.16-0.76-4.97c-0.51-1.82-1.42-3.5-2.75-5.06
	c-1.33-1.55-3.15-2.86-5.45-3.91c-2.3-1.05-5.24-1.57-8.8-1.57c-2.4,0-4.66,0.42-6.77,1.26c-2.12,0.84-3.99,2.05-5.62,3.62
	c-1.63,1.57-2.96,3.5-3.99,5.76c-1.03,2.27-1.68,4.83-1.94,7.67H66.27z"/>
<path class="st0" d="M114.27,97.85c2.06,0,4.01-0.21,5.85-0.62c1.83-0.41,3.48-0.9,4.95-1.46c1.46-0.56,2.69-1.1,3.68-1.63
	c0.99-0.52,1.68-0.9,2.05-1.12l2.92,4.83c-0.45,0.3-1.26,0.78-2.42,1.43c-1.16,0.66-2.61,1.32-4.36,2
	c-1.74,0.67-3.73,1.26-5.96,1.77c-2.23,0.51-4.66,0.76-7.28,0.76c-3.79,0-7.35-0.66-10.71-1.97c-3.35-1.31-6.28-3.17-8.77-5.56
	c-2.49-2.4-4.46-5.29-5.9-8.68c-1.44-3.39-2.16-7.17-2.16-11.33c0-4.2,0.75-8.01,2.25-11.44c1.5-3.43,3.51-6.35,6.04-8.77
	s5.48-4.28,8.85-5.59c3.37-1.31,6.95-1.97,10.74-1.97c2.44,0,4.87,0.33,7.31,0.98c2.44,0.66,4.62,1.55,6.55,2.67
	s3.49,2.44,4.69,3.96s1.8,3.14,1.8,4.86c0,1.76-0.55,3.2-1.66,4.3c-1.11,1.11-2.43,1.66-3.96,1.66c-1.54,0-2.78-0.45-3.74-1.35
	c-0.96-0.9-1.43-2.02-1.43-3.37c0-0.6,0.08-1.12,0.23-1.57c0.15-0.45,0.34-0.84,0.56-1.18s0.45-0.62,0.67-0.84s0.41-0.37,0.56-0.45
	c-0.3-0.34-0.78-0.71-1.43-1.12c-0.66-0.41-1.46-0.81-2.42-1.18c-0.96-0.37-2.08-0.68-3.37-0.93c-1.29-0.24-2.75-0.37-4.36-0.37
	c-3.11,0-5.94,0.54-8.49,1.63c-2.55,1.09-4.73,2.58-6.55,4.5s-3.23,4.2-4.24,6.86c-1.01,2.66-1.52,5.56-1.52,8.71
	c0,2.89,0.45,5.63,1.35,8.23s2.24,4.89,4.02,6.86c1.78,1.97,3.97,3.54,6.58,4.72C107.8,97.26,110.82,97.85,114.27,97.85z"/>
<path class="st0" d="M338.79,37.14h17.42v4.5l-8.99,1.35v59.81l8.99,1.35v4.5h-25.07v-4.5l8.99-1.35V57.27
	c0-0.71,0.02-1.6,0.06-2.67c0.04-1.07,0.09-2.2,0.17-3.4c0.07-1.2,0.16-2.42,0.25-3.68c0.09-1.26,0.2-2.43,0.31-3.51
	c-0.49,0.97-1.02,2.02-1.6,3.15c-0.58,1.12-1.16,2.22-1.74,3.29c-0.58,1.07-1.14,2.07-1.69,3.01c-0.54,0.94-1,1.72-1.38,2.36
	l-20.68,34.29h-6.3l-20.57-34.51c-0.38-0.6-0.81-1.36-1.29-2.28c-0.49-0.92-1.01-1.9-1.57-2.95c-0.56-1.05-1.12-2.13-1.66-3.23
	c-0.54-1.11-1.06-2.15-1.55-3.12c0.08,1.09,0.15,2.26,0.22,3.51s0.14,2.49,0.2,3.71c0.06,1.22,0.09,2.37,0.11,3.46
	c0.02,1.09,0.03,1.99,0.03,2.7v45.42l8.99,1.35v4.5h-24.73v-4.5l8.99-1.35V42.99l-8.99-1.35v-4.5h17.76l27.54,46.32L338.79,37.14z"
	/>
<path class="st0" d="M409.5,102.68c-0.19,0.19-0.78,0.67-1.77,1.46s-2.36,1.61-4.1,2.47s-3.86,1.64-6.35,2.33
	c-2.49,0.69-5.35,1.04-8.57,1.04c-2.66,0-5.16-0.36-7.5-1.07c-2.34-0.71-4.38-1.77-6.13-3.18c-1.74-1.41-3.13-3.14-4.16-5.2
	c-1.03-2.06-1.55-4.42-1.55-7.08c0-2.62,0.58-4.98,1.74-7.08c1.16-2.1,2.76-3.87,4.81-5.31c2.04-1.44,4.46-2.55,7.25-3.32
	c2.79-0.77,5.8-1.15,9.02-1.15c1.27,0,2.65,0.07,4.13,0.2c1.48,0.13,2.96,0.31,4.44,0.53c1.48,0.22,2.91,0.5,4.3,0.81
	c1.39,0.32,2.64,0.67,3.77,1.04v-4.05c0-4.8-1.48-8.3-4.44-10.51c-2.96-2.21-7.33-3.32-13.1-3.32c-2.1,0-3.98,0.17-5.65,0.51
	c-1.67,0.34-3.15,0.74-4.44,1.21c-1.29,0.47-2.37,0.95-3.23,1.43c-0.86,0.49-1.52,0.86-1.97,1.12l-3.26-4.72
	c0.49-0.34,1.26-0.82,2.33-1.46c1.07-0.64,2.44-1.27,4.1-1.91c1.67-0.64,3.62-1.19,5.87-1.66c2.25-0.47,4.81-0.7,7.7-0.7
	c3.45,0,6.58,0.4,9.41,1.21c2.83,0.81,5.25,2.07,7.25,3.79c2,1.72,3.55,3.92,4.64,6.58c1.09,2.66,1.63,5.85,1.63,9.56v26.75
	l9.56,1.12v4.5h-13.83L409.5,102.68z M408.82,84.7c-0.26-0.07-0.84-0.23-1.74-0.48c-0.9-0.24-2.07-0.5-3.51-0.76
	c-1.44-0.26-3.11-0.5-5-0.7c-1.89-0.21-3.94-0.31-6.16-0.31c-2.32,0-4.47,0.22-6.44,0.65c-1.97,0.43-3.66,1.1-5.09,2
	c-1.42,0.9-2.54,2.01-3.34,3.34s-1.21,2.89-1.21,4.69c0,1.46,0.27,2.86,0.81,4.19s1.36,2.5,2.45,3.51s2.46,1.82,4.13,2.42
	c1.67,0.6,3.62,0.9,5.87,0.9c2.96,0,5.51-0.24,7.64-0.73c2.14-0.49,3.96-1.1,5.48-1.83c1.52-0.73,2.75-1.51,3.71-2.33
	c0.96-0.82,1.75-1.55,2.39-2.19V84.7z"/>
<path class="st0" d="M449.18,103.02l11.24,1.12v4.5h-25.97v-4.5l7.87-1.12V62.55l-9.56-1.12v-4.5l14.28-0.9l1.8,13.04
	c3.22-4.68,6.44-8.18,9.64-10.48c3.2-2.3,6.13-3.46,8.8-3.46c1.35,0,2.53,0.2,3.54,0.59s1.86,0.92,2.53,1.57
	c0.67,0.66,1.18,1.41,1.52,2.25c0.34,0.84,0.51,1.7,0.51,2.56c0,0.97-0.18,1.84-0.53,2.58c-0.36,0.75-0.82,1.38-1.38,1.88
	c-0.56,0.51-1.2,0.88-1.91,1.12c-0.71,0.24-1.42,0.37-2.14,0.37c-1.35,0-2.49-0.45-3.43-1.35s-1.4-2.02-1.4-3.37
	c0-0.97,0.26-1.72,0.79-2.25c-0.64,0-1.51,0.25-2.61,0.76c-1.11,0.51-2.37,1.39-3.79,2.64c-1.42,1.26-2.98,2.95-4.67,5.09
	c-1.69,2.14-3.39,4.82-5.12,8.04V103.02z"/>
<path class="st0" d="M506.28,76.27l8.54-9.78c1.72-1.95,3.27-3.63,4.64-5.06c1.37-1.42,2.66-2.6,3.88-3.54s2.4-1.63,3.54-2.08
	c1.14-0.45,2.33-0.67,3.57-0.67c0.82,0,1.62,0.14,2.39,0.42c0.77,0.28,1.46,0.68,2.08,1.21s1.11,1.17,1.49,1.94
	c0.38,0.77,0.56,1.64,0.56,2.61c0,0.67-0.11,1.33-0.34,1.97c-0.23,0.64-0.56,1.2-1.01,1.69c-0.45,0.49-0.98,0.88-1.6,1.18
	s-1.32,0.45-2.11,0.45c-1.09,0-2.01-0.33-2.78-0.98c-0.77-0.66-1.15-1.53-1.15-2.61c0-0.34,0.05-0.64,0.14-0.9
	c0.09-0.26,0.2-0.49,0.31-0.67c-0.56,0.04-1.24,0.35-2.02,0.93s-1.58,1.26-2.39,2.05c-0.81,0.79-1.57,1.6-2.3,2.45
	c-0.73,0.84-1.3,1.51-1.71,2l-8.32,10.01l19.45,24.17l7.19,1.12v4.5h-11.35l-20.91-26.75h-8.88v21.13l7.31,1.12v4.5h-22.6v-4.5
	l8.43-1.12V34l-8.43-1.24v-4.61l15.29-0.9v49.01H506.28z"/>
<path class="st0" d="M577.22,104.48c2.32,0,4.44-0.23,6.35-0.7c1.91-0.47,3.6-1.01,5.06-1.63c1.46-0.62,2.68-1.25,3.65-1.88
	c0.97-0.64,1.69-1.11,2.14-1.41l3.37,4.5c-0.38,0.3-1.13,0.84-2.28,1.63c-1.14,0.79-2.62,1.58-4.44,2.39s-3.93,1.52-6.35,2.14
	c-2.42,0.62-5.07,0.93-7.95,0.93c-3.9,0-7.51-0.63-10.85-1.88c-3.34-1.25-6.21-3.05-8.63-5.4s-4.31-5.18-5.68-8.52
	c-1.37-3.33-2.05-7.06-2.05-11.19c0-4.08,0.64-7.86,1.91-11.33c1.27-3.46,3.05-6.46,5.34-8.99c2.29-2.53,5-4.5,8.15-5.9
	s6.59-2.11,10.34-2.11c4.2,0,7.81,0.67,10.85,2s5.54,3.08,7.5,5.25c1.97,2.17,3.43,4.65,4.38,7.42c0.96,2.77,1.43,5.6,1.43,8.49
	c0,1.54-0.1,2.93-0.31,4.19c-0.21,1.26-0.4,2.15-0.59,2.67h-41.93c0.04,2.96,0.58,5.63,1.63,8.01c1.05,2.38,2.47,4.41,4.27,6.1
	c1.8,1.69,3.94,2.98,6.44,3.88C571.47,104.03,574.22,104.48,577.22,104.48z M592.62,79.53c0.11-0.71,0.18-1.22,0.2-1.52
	c0.02-0.3,0.03-0.73,0.03-1.29c0-1.5-0.25-3.16-0.76-4.97c-0.51-1.82-1.42-3.5-2.75-5.06c-1.33-1.55-3.15-2.86-5.45-3.91
	c-2.3-1.05-5.24-1.57-8.8-1.57c-2.4,0-4.66,0.42-6.77,1.26c-2.12,0.84-3.99,2.05-5.62,3.62c-1.63,1.57-2.96,3.5-3.99,5.76
	c-1.03,2.27-1.68,4.83-1.94,7.67H592.62z"/>
<path class="st0" d="M632.41,109.32c-4.72,0-8.15-1.31-10.29-3.93c-2.14-2.62-3.2-6.63-3.2-12.03v-1.8c0-0.49,0.01-1.07,0.03-1.74
	c0.02-0.67,0.04-1.57,0.06-2.7c0.02-1.12,0.04-2.7,0.06-4.72c0.02-2.02,0.05-4.63,0.08-7.81c0.04-3.18,0.08-7.19,0.11-12.03h-10.23
	V58.5c2.29-0.49,4.15-1.07,5.59-1.74c1.44-0.67,2.61-1.62,3.51-2.84c0.9-1.22,1.6-2.8,2.11-4.75c0.51-1.95,0.96-4.46,1.38-7.53h4.5
	v15.29h18.66v5.62h-18.66c-0.08,4.16-0.14,7.72-0.2,10.68c-0.06,2.96-0.1,5.46-0.14,7.5c-0.04,2.04-0.06,3.67-0.06,4.89
	c0,1.22-0.01,2.16-0.03,2.84c-0.02,0.67-0.03,1.14-0.03,1.41v0.45c0,2.29,0.1,4.25,0.31,5.9c0.21,1.65,0.6,3.01,1.18,4.08
	c0.58,1.07,1.4,1.86,2.45,2.39c1.05,0.53,2.44,0.79,4.16,0.79c1.27,0,2.5-0.14,3.68-0.42s2.27-0.61,3.26-0.98
	c0.99-0.38,1.85-0.75,2.56-1.12c0.71-0.37,1.22-0.65,1.52-0.84l2.92,4.27c-0.26,0.19-0.83,0.55-1.71,1.1c-0.88,0.54-2,1.1-3.34,1.66
	c-1.35,0.56-2.9,1.07-4.67,1.52C636.22,109.09,634.36,109.32,632.41,109.32z"/>
<path class="st0" d="M194.28,67.67c-1.25-3.93-4.12-7.27-7.66-8.95c-6.85-3.25-14-2.81-20.16-2.15c-0.79,0.09-1.48,0.57-1.82,1.29
	c-0.35,0.72-0.29,1.56,0.14,2.23c0.76,1.2,1.88,3.03,2.42,4.01c1.37,2.5,2.01,5.39,2.51,7.89c1.21,6.07,7.15,11.86,15.09,11.86
	c0.83,0,1.68-0.06,2.55-0.2c1.25-0.19,2.11-1.36,1.92-2.61c-0.19-1.25-1.37-2.12-2.61-1.92c-6.31,0.96-11.53-3.37-12.45-8.03
	c-0.56-2.84-1.3-6.14-2.99-9.21c-0.17-0.31-0.38-0.68-0.62-1.08c5.27-0.33,9.81,0.04,14.06,2.06c2.42,1.15,4.38,3.46,5.26,6.2
	c0.4,1.26,0.68,2.98,0.33,4.94c-2.06-2.29-4.55-4.74-7.61-7.38c-0.96-0.83-2.41-0.72-3.23,0.25c-0.83,0.96-0.72,2.4,0.24,3.23
	c4.06,3.49,7.05,6.61,9.29,9.39c0.14,0.31,0.35,0.58,0.62,0.8c4.27,5.54,5.53,9.65,6.39,12.5c0.12,0.39,0.23,0.75,0.34,1.1
	c-2.31,4.86-3.71,9.43-4.34,12.88c-0.23,1.24,0.6,2.44,1.84,2.66c0.14,0.03,0.28,0.04,0.42,0.04c1.08,0,2.05-0.77,2.25-1.88
	c0.61-3.34,1.99-7.8,4.32-12.53c0.03-0.06,0.06-0.12,0.09-0.18c1.43-2.88,3.23-5.84,5.42-8.71c0.18-0.03,0.37-0.07,0.55-0.14
	c5.16-2.12,11.13-0.77,11.19-0.76c1.23,0.29,2.46-0.48,2.75-1.71c0.29-1.23-0.47-2.46-1.71-2.75c-0.2-0.05-3.48-0.79-7.58-0.47
	c3.23-3.07,7.04-5.82,11.51-7.93c1.14-0.54,1.63-1.91,1.09-3.05c-0.54-1.14-1.91-1.63-3.05-1.09c-2.59,1.22-4.96,2.65-7.16,4.21
	l0.1-0.35c0.35-1.22-0.36-2.49-1.57-2.83c-1.22-0.35-2.48,0.35-2.83,1.57l-1.92,6.69c-0.02,0.07-0.02,0.14-0.04,0.21
	c-2.98,2.95-5.51,6.14-7.58,9.37c-1.1-3.78-0.6-7.1,0.15-9.45c1.38-4.32,4.49-7.98,8.32-9.8c6.94-3.28,14.34-3.7,23.03-3
	c-0.68,1.11-1.34,2.24-1.8,3.08c-2.41,4.4-3.48,9.15-4.29,13.26c-0.86,4.33-3.25,8.06-6.56,10.23c-3.59,2.35-8.13,2.95-13.47,1.77
	c-1.24-0.27-2.46,0.51-2.73,1.75c-0.27,1.24,0.51,2.46,1.75,2.73c2.06,0.45,4.06,0.68,5.98,0.68c4.12,0,7.85-1.04,10.99-3.09
	c4.4-2.88,7.44-7.56,8.55-13.18c0.75-3.78,1.72-8.12,3.82-11.95c0.79-1.44,2.45-4.16,3.61-5.98c0.43-0.67,0.48-1.51,0.13-2.22
	c-0.34-0.72-1.03-1.2-1.82-1.28c-8.92-0.96-19.27-1.59-29.13,3.07c-4.96,2.35-8.97,7.04-10.73,12.54c-0.39,1.22-0.64,2.47-0.8,3.72
	c-0.39-0.58-0.82-1.18-1.28-1.8C195.18,74.84,195.39,71.15,194.28,67.67L194.28,67.67z M194.28,67.67"/>
<path class="st0" d="M179.71,126.6c0.33,0.14,0.67,0.21,1,0.21c1,0,1.95-0.59,2.37-1.56c0.56-1.3-0.05-2.81-1.36-3.37
	c-20.25-8.63-32.27-29.14-29.91-51.05c2.7-25.05,23.67-43.77,48.23-44.34l-6.34,5.11c-1.1,0.89-1.28,2.51-0.39,3.61
	c0.51,0.63,1.25,0.96,2,0.96c0.57,0,1.14-0.19,1.61-0.57l11.68-9.41c1.1-0.89,1.28-2.51,0.39-3.61l-9.41-11.68
	c-0.89-1.11-2.51-1.28-3.61-0.39c-1.1,0.89-1.28,2.51-0.39,3.61l5.8,7.2c-27.71-0.11-51.64,20.82-54.67,48.96
	C144.1,94.45,157.36,117.08,179.71,126.6L179.71,126.6z M179.71,126.6"/>
<path class="st0" d="M220.24,30.23c20.24,8.37,32.73,29.44,30.39,51.25c-2.7,25.06-23.68,43.78-48.24,44.34l6.35-5.11
	c1.1-0.89,1.28-2.51,0.39-3.61c-0.89-1.11-2.51-1.28-3.61-0.39l-11.68,9.41c-0.53,0.43-0.87,1.05-0.94,1.73
	c-0.07,0.68,0.13,1.36,0.55,1.89l9.41,11.68c0.51,0.63,1.25,0.96,2,0.96c0.57,0,1.14-0.19,1.61-0.57c1.1-0.89,1.28-2.51,0.39-3.61
	l-5.8-7.2c0.07,0,0.14,0.01,0.21,0.01c27.62,0,51.46-20.89,54.48-48.96c2.59-24.06-11.2-47.31-33.53-56.55
	c-1.31-0.54-2.81,0.08-3.36,1.39C218.3,28.18,218.93,29.68,220.24,30.23L220.24,30.23z M220.24,30.23"/>
</svg>
