<svg height="512pt" viewBox="0 0 512.00052 512" width="512pt" xmlns="http://www.w3.org/2000/svg"><path d="m511.484375 30.96875c-.777344-16.574219-13.859375-29.675781-30.457031-30.472656-7.230469-.335938-72.894532-2.964844-151.511719 8.445312-46.105469 6.691406-87.75 16.933594-123.785156 30.445313-45.53125 17.070312-82.398438 39.511719-109.574219 66.707031-41.320312 41.339844-64.074219 96.375-64.074219 154.96875 0 53.519531 18.984375 104.070312 53.753907 143.929688l-81.4375 81.398437c-5.863282 5.855469-5.863282 15.351563-.007813 21.214844 2.929687 2.929687 6.769531 4.394531 10.609375 4.394531 3.835938 0 7.675781-1.464844 10.601562-4.390625l81.433594-81.390625c39.851563 34.875 90.441406 53.921875 144.015625 53.921875 58.578125 0 113.59375-22.765625 154.90625-64.101563 27.175781-27.195312 49.605469-64.078124 66.667969-109.632812 13.5-36.050781 23.738281-77.714844 30.425781-123.835938 11.460938-79.015624 8.78125-144.332031 8.433594-151.601562zm-38.121094 147.296875c-14.191406 97.867187-44.835937 172.753906-88.625 216.566406-35.644531 35.664063-83.121093 55.308594-133.6875 55.308594-45.550781 0-88.597656-15.945313-122.742187-45.183594l72.601562-72.566406 90.613282 13.308594c7.308593 0 13.710937-5.351563 14.816406-12.796875 1.21875-8.195313-4.433594-15.824219-12.628906-17.042969l-66.382813-9.871094 51.269531-51.246093c5.863282-5.855469 5.863282-15.351563.007813-21.210938s-15.351563-5.863281-21.214844-.007812l-51.246094 51.222656-9.859375-66.371094c-1.214844-8.195312-8.84375-13.851562-17.039062-12.632812-8.195313 1.214843-13.851563 8.84375-12.632813 17.039062l13.125 88.363281-72.621093 72.582031c-29.148438-34.148437-45.035157-77.160156-45.035157-122.664062 0-50.582031 19.636719-98.085938 55.292969-133.761719 43.78125-43.808593 118.628906-74.46875 216.449219-88.667969 50.089843-7.269531 94.574219-8.640624 121.007812-8.640624 13.601563 0 22.425781.363281 24.777344.472656 1.039063.050781 1.859375.867187 1.910156 1.90625v.015625c.132813 2.75 3.097657 68.273437-8.15625 145.878906zm0 0"/></svg>