<svg height="512pt" viewBox="-49 0 512 512" width="512pt" xmlns="http://www.w3.org/2000/svg"><path d="m394.957031 14.378906c-.332031-8.035156-6.945312-14.378906-14.984375-14.378906h-70.847656c-3.980469 0-7.792969 1.578125-10.609375 4.394531-2.8125 2.8125-4.390625 6.625-4.390625 10.605469v105.5h-173.28125l.003906-105.5c0-3.980469-1.582031-7.792969-4.394531-10.605469-2.8125-2.816406-6.628906-4.394531-10.609375-4.394531h-70.84375c-8.042969 0-14.652344 6.34375-14.988281 14.378906l-20.0000002 482c-.1679688 4.082032 1.3359372 8.058594 4.1640622 11.007813 2.828125 2.945312 6.738281 4.613281 10.824219 4.613281h384.972656c4.085938 0 7.992188-1.667969 10.824219-4.613281 2.828125-2.949219 4.332031-6.925781 4.160156-11.007813zm-364.320312 467.621094 18.753906-452h41.453125v105.503906c0 3.976563 1.578125 7.792969 4.394531 10.605469 2.8125 2.8125 6.628907 4.394531 10.605469 4.394531h203.28125c3.980469 0 7.796875-1.582031 10.605469-4.394531 2.816406-2.8125 4.394531-6.628906 4.394531-10.605469v-105.503906h41.453125l18.757813 452zm0 0"/><path d="m309.410156 341.210938c-4.300781-7.078126-13.523437-9.339844-20.605468-5.042969-7.082032 4.300781-9.339844 13.523437-5.042969 20.605469l17.078125 28.148437h-58.222656l4.433593-4.429687c5.855469-5.859376 5.855469-15.355469 0-21.214844-5.859375-5.855469-15.355469-5.855469-21.214843 0l-30 30c-5.859376 5.859375-5.859376 15.355468 0 21.214844l30 30c2.929687 2.929687 6.769531 4.394531 10.605468 4.394531 3.839844 0 7.679688-1.464844 10.609375-4.394531 5.855469-5.859376 5.855469-15.355469 0-21.214844l-4.359375-4.355469h84.796875c5.414063 0 10.414063-2.921875 13.070313-7.640625 2.65625-4.722656 2.5625-10.507812-.25-15.140625zm0 0"/><path d="m234.265625 274.953125-4.878906-1.308594c-7.992188-2.136719-16.226563 2.605469-18.371094 10.609375-2.144531 8 2.605469 16.226563 10.605469 18.371094l40.984375 10.976562c1.296875.351563 2.601562.515626 3.890625.515626 6.621094 0 12.683594-4.417969 14.480468-11.121094l10.980469-40.980469c2.144531-8-2.605469-16.226563-10.609375-18.371094-7.988281-2.132812-16.226562 2.605469-18.371094 10.609375l-1.890624 7.058594-40.8125-67.003906c-2.722657-4.46875-7.578126-7.195313-12.8125-7.195313-.003907 0-.007813 0-.011719 0-5.238281.003907-10.09375 2.738281-12.8125 7.21875l-30.695313 50.574219c-4.296875 7.082031-2.039062 16.308594 5.042969 20.605469s16.304687 2.042969 20.605469-5.039063l17.894531-29.488281zm0 0"/><path d="m160.308594 299.566406c-1.03125-3.84375-3.546875-7.117187-6.992188-9.109375-3.441406-1.988281-7.539062-2.523437-11.378906-1.496093l-40.984375 10.980468c-8 2.144532-12.75 10.367188-10.605469 18.371094 2.144532 8.003906 10.371094 12.75 18.371094 10.605469l4.972656-1.332031-39.042968 64.574218c-2.800782 4.632813-2.890626 10.414063-.230469 15.132813 2.660156 4.714843 7.652343 7.628906 13.066406 7.628906h58.976563c8.285156 0 15-6.714844 15-15 0-8.28125-6.714844-15-15-15h-32.378907l26.359375-43.589844 1.871094 6.980469c1.792969 6.703125 7.855469 11.121094 14.476562 11.121094 1.285157 0 2.59375-.164063 3.894532-.515625 8-2.144531 12.75-10.367188 10.605468-18.371094zm0 0"/></svg>