<svg id="Capa_1" enable-background="new 0 0 509.849 509.849" height="512" viewBox="0 0 509.849 509.849" width="512" xmlns="http://www.w3.org/2000/svg"><g><path d="m490.833 228.104-11.605 9.51c-4.05-53.566-26.849-103.378-65.232-141.761-42.49-42.49-98.982-65.89-159.072-65.89-59.794 0-116.089 23.203-158.516 65.335l21.14 21.287c36.768-36.513 85.556-56.622 137.376-56.622 101.235 0 184.684 77.563 194.072 176.382l-10.056-8.241-19.016 23.203 38.755 31.762h12.414l38.756-31.762z"/><path d="m254.924 449.887c-101.999 0-185.942-78.737-194.271-178.622l10.256 8.405 19.016-23.203-38.755-31.762h-12.415l-38.755 31.762 19.016 23.203 11.472-9.401c3.634 54.312 26.512 104.876 65.364 143.728 42.49 42.49 98.983 65.89 159.072 65.89 60.386 0 117.075-23.598 159.627-66.446l-21.287-21.14c-36.877 37.135-86.007 57.586-138.34 57.586z"/><path d="m203.854 103.659v54.104h-25.399v246.351h152.938v-246.35h-25.398v-54.104h-102.141zm97.539 126.244h-92.938v-42.14h92.938zm-67.539-96.244h42.14v24.104h-42.14zm-25.398 240.455v-114.211h92.938v114.211z"/></g></svg>