<svg enable-background="new 0 0 32 32" viewBox="0 0 32 32" xmlns="http://www.w3.org/2000/svg"><g id="Grid"/><g id="Layer_3" display="none"/><g id="Layer_37"><path d="m22.8 24.7c.3.5.2 1.1-.3 1.4-1.9 1.2-4.2 1.9-6.5 1.9-3.7 0-7.1-1.7-9.4-4.5 0 0-.5 2-.5 2-.2.6-.8.9-1.4.7-.5-.2-.7-.7-.6-1.2 0 0 1.1-4.1 1.1-4.1.1-.5.7-.8 1.2-.7.3.1.6.2 1 .3.8.1 1.6.3 2.5.5.2.1.5.1.7.2.5.1.9.7.7 1.2-.1.5-.7.9-1.2.7l-1.4-.4c1.9 2 4.5 3.2 7.4 3.2 1.9 0 3.8-.6 5.4-1.6.4-.2 1-.1 1.3.4zm-17.8-7.1c.6 0 1-.5 1-1.1 0-.2 0-.3 0-.5 0-4.8 3.4-8.8 7.8-9.8 0 0-1.1 1.1-1.1 1.1-.6.6-.3 1.5.5 1.7.3.1.7 0 .9-.3.5-.5 1-1 1.5-1.5.3-.3.6-.6.8-.8.3-.3.7-.6.9-1.1.3-.7-.4-1.2-.9-1.7-.4-.5-1-1.1-1.5-1.6-.2-.2-.4-.4-.7-.7-.4-.4-1-.4-1.4 0s-.4 1 0 1.4l1.4 1.4c-5.7.9-10.2 5.9-10.2 11.9v.6c0 .6.5 1 1 1zm25.3 3c-.1-.5-.7-.9-1.2-.7l-2 .5c.6-1.4.9-2.9.9-4.4 0-4.5-2.5-8.6-6.5-10.7-.5-.3-1.1-.1-1.3.4-.3.5-.1 1.1.4 1.3 3.3 1.8 5.4 5.2 5.4 9 0 1-.2 2-.5 3l-.4-1.4c-.1-.5-.7-.9-1.2-.7-.5.1-.9.7-.7 1.2 0 0 1.1 4.1 1.1 4.1.1.2.3.5.5.6s.5.2.8.1l4.1-1.1c.5-.1.8-.7.6-1.2z"/></g></svg>