<svg height="512pt" viewBox="0 0 512 512.00025" width="512pt" xmlns="http://www.w3.org/2000/svg"><path d="m496.832031 15.167969c-20.226562-20.222657-53.132812-20.222657-73.359375 0-1.242187 1.242187-2.90625 2.90625-39.648437 58.582031l-27.050781-27.050781-310.074219 310.074219 27.050781 27.050781c-55.675781 36.742187-57.339844 38.40625-58.582031 39.648437-20.222657 20.226563-20.222657 53.132813 0 73.359375 10.113281 10.113281 23.398437 15.167969 36.679687 15.167969 13.285156 0 26.566406-5.054688 36.679688-15.167969 1.242187-1.242187 2.90625-2.90625 39.648437-58.582031l27.050781 27.050781 310.074219-310.074219-27.050781-27.050781c55.675781-36.742187 57.339844-38.40625 58.582031-39.648437 20.222657-20.226563 20.222657-53.132813 0-73.359375zm-182.625 116.527343 66.097657 66.097657-182.511719 182.511719-66.097657-66.09375zm-247.480469 344.484376c-8.566406 7.957031-22.007812 7.769531-30.339843-.5625-4.132813-4.132813-6.40625-9.625-6.40625-15.464844 0-5.570313 2.066406-10.820313 5.839843-14.875 5.394532-3.914063 35.816407-24.101563 59.589844-39.792969l11.105469 11.105469c-15.6875 23.769531-35.878906 54.1875-39.789063 59.589844zm22.40625-119.40625 21.347657-21.347657 66.09375 66.09375-21.347657 21.347657zm312.386719-180.199219-66.09375-66.09375 21.347657-21.347657 66.097656 66.09375zm74.660157-109.847657c-5.394532 3.910157-35.816407 24.101563-59.589844 39.789063l-11.105469-11.105469c15.6875-23.769531 35.878906-54.191406 39.789063-59.589844 8.566406-7.957031 22.007812-7.769531 30.34375.566407 4.128906 4.128906 6.402343 9.621093 6.402343 15.460937 0 5.570313-2.066406 10.820313-5.839843 14.878906zm0 0"/></svg>